<svg xmlns="http://www.w3.org/2000/svg" xmlns:xlink="http://www.w3.org/1999/xlink" xmlns:lucid="lucid" width="1294.5" height="1000"><g transform="translate(-20 980)" lucid:page-tab-id="0_0"><path d="M200-220c0 44.18-35.82 80-80 80s-80-35.82-80-80 35.82-80 80-80 80 35.82 80 80z" stroke="#000" stroke-width="2" fill="#fff"/><use xlink:href="#a" transform="matrix(1,0,0,1,45,-295) translate(64.1982421875 82.3330078125)"/><path d="M200-460c0 44.18-35.82 80-80 80s-80-35.82-80-80 35.82-80 80-80 80 35.82 80 80z" stroke="#000" stroke-width="2" fill="#fff"/><use xlink:href="#b" transform="matrix(1,0,0,1,45,-535) translate(64.1982421875 82.3330078125)"/><path d="M360-600c0 44.18-35.82 80-80 80s-80-35.82-80-80 35.82-80 80-80 80 35.82 80 80z" stroke="#000" stroke-width="2" fill="#fff"/><use xlink:href="#c" transform="matrix(1,0,0,1,205,-675) translate(64.1982421875 82.3330078125)"/><path d="M607.25-600c0 44.18-35.82 80-80 80s-80-35.82-80-80 35.82-80 80-80 80 35.82 80 80z" stroke="#000" stroke-width="2" fill="#fff"/><use xlink:href="#d" transform="matrix(1,0,0,1,452.2493276285269,-675) translate(64.1982421875 82.3330078125)"/><path d="M388.48-599H362v-2h26.48zm39.27 0h-28.47v-2h28.47z"/><path d="M362.03-599h-1.06l.03-1v-1h1.03zM443-600l-14.25 4.64v-9.28z"/><path d="M446.25-600l-18.5 6v-12zm-16.5 3.26l10.03-3.26-10.03-3.26z"/><use xlink:href="#e" transform="matrix(1,0,0,1,388.48100486231584,-610.4765625) translate(0 16.7080078125)"/><path d="M854.5-600c0 44.18-35.82 80-80 80s-80-35.82-80-80 35.82-80 80-80 80 35.82 80 80z" stroke="#000" stroke-width="2" fill="#fff"/><use xlink:href="#f" transform="matrix(1,0,0,1,699.4986552570538,-675) translate(64.1982421875 82.3330078125)"/><path d="M638.5-599h-29.25v-2h29.26zm36.5 0h-25.68v-2H675z"/><path d="M609.27-599h-1.05l.03-1v-.7l-.02-.3h1.04zM690.26-600L676-595.36v-9.28z"/><path d="M693.5-600l-18.5 6v-12zm-16.5 3.26l10.03-3.26-10.03-3.26z"/><use xlink:href="#g" transform="matrix(1,0,0,1,638.5139839324706,-610.4765625) translate(0 16.7080078125)"/><path d="M1014.5-460c0 44.18-35.82 80-80 80s-80-35.82-80-80 35.82-80 80-80 80 35.82 80 80z" stroke="#000" stroke-width="2" fill="#fff"/><use xlink:href="#h" transform="matrix(1,0,0,1,859.4986552570538,-535) translate(64.1982421875 82.3330078125)"/><path d="M360-860c0 44.18-35.82 80-80 80s-80-35.82-80-80 35.82-80 80-80 80 35.82 80 80z" stroke="#000" stroke-width="2" fill="#c7e8ac" fill-opacity=".62"/><path d="M380-860c0 55.23-44.77 100-100 100s-100-44.77-100-100 44.77-100 100-100 100 44.77 100 100z" stroke="#000" stroke-width="2" fill="#c7e8ac" fill-opacity=".62"/><use xlink:href="#i" transform="matrix(1,0,0,1,185,-955) translate(73.396484375 99.8330078125)"/><path d="M854.5-860c0 44.18-35.82 80-80 80s-80-35.82-80-80 35.82-80 80-80 80 35.82 80 80z" stroke="#000" stroke-width="2" fill="#c7e8ac" fill-opacity=".62"/><path d="M874.5-860c0 55.23-44.77 100-100 100s-100-44.77-100-100 44.77-100 100-100 100 44.77 100 100z" stroke="#000" stroke-width="2" fill="#c7e8ac" fill-opacity=".62"/><use xlink:href="#j" transform="matrix(1,0,0,1,679.4986552570538,-955) translate(73.396484375 99.8330078125)"/><path d="M1274.5-218c0 44.2-35.82 80-80 80s-80-35.8-80-80c0-44.17 35.82-80 80-80s80 35.83 80 80z" stroke="#000" stroke-width="2" fill="#c7e8ac" fill-opacity=".62"/><path d="M1294.5-220c0 55.23-44.77 100-100 100s-100-44.77-100-100 44.77-100 100-100 100 44.77 100 100z" stroke="#000" stroke-width="2" fill="#c7e8ac" fill-opacity=".62"/><use xlink:href="#k" transform="matrix(1,0,0,1,1099.498655257054,-315) translate(73.396484375 99.8330078125)"/><path d="M607.25-100c0 44.18-35.82 80-80 80s-80-35.82-80-80 35.82-80 80-80 80 35.82 80 80z" stroke="#000" stroke-width="2" fill="#ff8f80"/><path d="M627.25-100c0 55.23-44.77 100-100 100s-100-44.77-100-100 44.77-100 100-100 100 44.77 100 100z" stroke="#000" stroke-width="2" fill="#ff8f80" fill-opacity=".62"/><use xlink:href="#l" transform="matrix(1,0,0,1,432.2493276285269,-195) translate(89.59912109375 99.8330078125)"/><path d="M1014.5-220c0 44.18-35.82 80-80 80s-80-35.82-80-80 35.82-80 80-80 80 35.82 80 80z" stroke="#000" stroke-width="2" fill="#fff"/><use xlink:href="#m" transform="matrix(1,0,0,1,859.4986552570538,-295) translate(64.1982421875 82.3330078125)"/><path d="M935.5-319.5h-2v-15.98h2zm0-37.58h-2V-378h2z"/><path d="M934.5-379h1v1.03h-2v-1.06zM934.5-304.24l-4.64-14.26h9.27z"/><path d="M934.5-301l-6-18.5h12zm-3.26-16.5l3.26 10.03 3.26-10.03z"/><use xlink:href="#n" transform="matrix(1,0,0,1,931.9986552570538,-357.07966054947366) translate(0 14.4)"/><path d="M905.37-589.14l4.05 2.4 3.6 2.5 3.23 2.5 2.88 2.57 2.56 2.6 2.28 2.63 2.04 2.66 1.8 2.7 1.6 2.76 1.42 2.8 1.2 2.9.25.66-1.9.66-.2-.6-1.18-2.77-1.35-2.7-1.54-2.65-1.74-2.6-1.97-2.56-2.2-2.53-2.48-2.52-2.78-2.47-3.13-2.44-3.5-2.4-3.93-2.35-3.28-1.67v-2.25zm-42.3-11.62l7.42.7 7.05 1.13 6.62 1.5 6.1 1.77 5.57 2.02.28.12v2.18l-1.02-.44-5.44-1.98-6-1.74-6.48-1.47-6.95-1.1-7.27-.7-6.5-.2.07-2z"/><path d="M856.56-600.97l-.07 2-1.03-.03.03-1v-.7l-.02-.3zM933.94-544.2l-7-13.25 9.12-1.6z"/><path d="M934.5-541l-9.1-17.2 11.85-2.06zm-6.04-15.7l4.93 9.32 1.48-10.44z"/><use xlink:href="#o" transform="matrix(1,0,0,1,896.1242740760193,-602.1371839528588) translate(0 14.4)"/><path d="M138.18-579l-.95.83-2.53 2.5-2.25 2.53-2 2.56-1.78 2.6-1.58 2.62-1.4 2.7-1.2 2.74-1.02 2.84-.85 2.93-.7 3.05-.5 3.18-.32 3.36-.07 2.6-2-.07.1-2.65.32-3.5.52-3.3.72-3.17.88-3.06 1.07-2.96 1.25-2.87 1.44-2.8 1.64-2.74 1.85-2.7 2.08-2.65 2.35-2.63 2.62-2.6 2.3-2zm42.54-18.52l-2.17.32-6.58 1.4-6.08 1.7-5.55 1.94-5 2.12-4.5 2.24-4 2.33-3.6 2.4-.07.06v-2.43l2.6-1.74 4.13-2.4 4.6-2.3 5.13-2.15 5.66-1.98 6.2-1.74 6.7-1.42 2.23-.33z"/><path d="M121.03-542l-.03 1.03-1-.03h-1l.03-1.06zM195.77-599.74l-13.84 5.78-.75-9.24z"/><path d="M199-600l-17.95 7.5-.98-12zm-16.18 4.58l9.73-4.06-10.26-2.43z"/><use xlink:href="#n" transform="matrix(1,0,0,1,138.17511307384686,-593.1588922375057) translate(0 14.4)"/><path d="M121-302h-2v-27.2h2zm0-48.8h-2v-9.7h2z"/><path d="M121-300.97l-1-.03h-1v-1.03h2zM124.64-361.5h-9.28l4.64-14.26z"/><path d="M126-360.5h-12l6-18.5zm-9.26-2h6.52L120-372.53z"/><use xlink:href="#o" transform="matrix(1,0,0,1,117.5,-350.8005849940216) translate(0 14.4)"/><path d="M266.03-254l11.35 9.54 13.65 10.54 17.54 12.4 26.03 16.8 86.35 50.32-1 1.73-86.4-50.35-26.1-16.83-17.6-12.46-13.73-10.6-11.4-9.6-3-2.76v-2.7zm-84.2-131.57l4.88 14.45 5.02 13 5.15 11.87 5.3 10.96 5.5 10.23 5.73 9.64 6 9.2 6.32 8.87 6.72 8.65 7.23 8.52 7.87 8.53 4.17 4.15v2.83l-5.6-5.6-7.93-8.6-7.28-8.58-6.8-8.7-6.36-8.95-6.04-9.27-5.76-9.72-5.54-10.28-5.35-11.03-5.18-11.95-5.04-13.1-4.9-14.52-4.5-15.4 1.92-.55z"/><path d="M177.36-400.9l-1.92.56-.14-.5.4-.34 1.22-1.24zM433.63-145.85l-14.66-3.18 4.67-8z"/><path d="M436.43-144.22l-19-4.12 6.04-10.4zm-15.9-5.5l10.3 2.24-7.02-7.86z"/><use xlink:href="#p" transform="matrix(1,0,0,1,251.71026066317972,-271.9948798825813) translate(0 14.4)"/><path d="M328.5-344.48l9.55 15.04 12.22 17.55 17.4 22.86 41.4 49.5 41.2 48.16-1.52 1.3-41.2-48.16-41.45-49.55-17.44-22.9-12.27-17.63-9.6-15.12-2.57-4.42v-4zm-47.14-157.1l1 15.97 1.55 14.78 2.06 13.86 2.5 13.15 2.96 12.6 3.4 12.23 3.9 12 4.44 11.9 5.03 11.97 5.76 12.25.75 1.43h-.47v3.4l-2.06-3.94-5.8-12.32-5.07-12.06-4.46-11.98-3.92-12.07-3.44-12.3-2.97-12.7L284-456.6l-2.05-13.95-1.56-14.88-1-16.03-.35-16.5 2-.04z"/><path d="M280-519h1l.02 1-2 .05-.02-1.08zM459.44-179.13l-12.8-7.83 7.04-6.03z"/><path d="M461.54-176.67l-16.6-10.15 9.14-7.82zm-13.2-10.42l9 5.5-4.05-9.73z"/><use xlink:href="#p" transform="matrix(1,0,0,1,314.2271607038287,-369.42143525049045) translate(0 14.4)"/><path d="M528.25-219.5h-2v-169.23h2zm0-190.83h-2V-518h2z"/><path d="M527.24-519h1v1.03h-2v-1.06zM527.25-204.24l-4.64-14.26h9.28z"/><path d="M527.25-201l-6-18.5h12zM524-217.5l3.25 10.03 3.26-10.03z"/><use xlink:href="#p" transform="matrix(1,0,0,1,522.249327628527,-410.32793462597294) translate(0 14.4)"/><path d="M745.77-385.85H747l-2.47 5.25-6.27 11.98-7.36 12.75-8.9 14-11.26 16.18-15.76 20.72-33.04 39.6-60.7 71.6-1.54-1.3 60.7-71.6 33-39.55 15.72-20.64 11.22-16.1 8.85-13.94 7.3-12.68 6.24-11.9 3.03-6.46zm29.7-132.12l-.3 14.94-.92 14.73-1.44 13.73-1.9 12.93-2.35 12.32-2.78 11.85-3.2 11.5-3.68 11.3-3.13 8.37v-1.15h-1.7l2.93-7.87 3.64-11.22 3.2-11.43 2.75-11.77 2.33-12.23 1.9-12.86 1.42-13.64.92-14.64.3-14.92z"/><path d="M774.5-519h1l-.02 1.05-2-.04.02-1.03zM603.35-190.66l-12.76 7.9 5.68-13.9z"/><path d="M605.05-190.53L588.5-180.3l7.38-18zm-12.36 5.3l8.96-5.56-4.97-4.2z"/><use xlink:href="#p" transform="matrix(1,0,0,1,745.7743251857636,-407.4544110252224) translate(0 14.4)"/><path d="M818.02-281.82l-.66 1.1-5.72 8.7-5.68 7.9-5.75 7.35-5.94 6.96-6.26 6.72-6.72 6.65-7.37 6.7-8.27 6.9-9.6 7.37-11.6 8.14-14.9 9.53-21.18 12.33-38.52 20.25-33.5 16.32-.88-1.8 33.47-16.3 38.46-20.22 21.1-12.28 14.82-9.5 11.54-8.08 9.54-7.3 8.22-6.86 7.3-6.64 6.66-6.6 6.2-6.66 5.9-6.9 5.7-7.27 5.64-7.84 5.67-8.63 2.35-3.94zm53.05-127.38l-16.44 48.42-10.27 26.44-8 18.25-6.87 14.05-1.48 2.7v-3.68h-.28l6.8-13.9 7.97-18.17 10.25-26.36 16.43-48.38z"/><path d="M871.2-409.53l-.13.36-1.9-.64.54-1.6zM637.02-145.2l-14.85 2.1 10.8-10.42z"/><path d="M638.52-144.4l-19.26 2.7 14-13.5zm-13.44-.12l10.44-1.47-2.86-5.85z"/><use xlink:href="#p" transform="matrix(1,0,0,1,818.0238238036359,-303.03017391955376) translate(0 14.4)"/><path d="M281-682h-2v-15.77h2zm0-37.37h-2v-21.13h2z"/><path d="M281-680.97l-1-.03h-1v-1.03h2zM284.64-741.5h-9.28l4.64-14.26z"/><path d="M286-740.5h-12l6-18.5zm-9.26-2h6.52L280-752.53z"/><use xlink:href="#q" transform="matrix(1,0,0,1,272.50000000000006,-719.3688731972122) translate(0 14.4)"/><path d="M775.5-682h-2v-22.5h2zm0-44.1h-2v-14.4h2z"/><path d="M775.5-680.97l-1-.03h-1v-1.03h2zM779.13-741.5h-9.27l4.64-14.26z"/><path d="M780.5-740.5h-12l6-18.5zm-9.26-2h6.52l-3.26-10.03z"/><use xlink:href="#q" transform="matrix(1,0,0,1,766.9986552570539,-726.0931099646161) translate(0 14.4)"/><path d="M1047-219h-30.5v-2h30.5zm28 0h-13v-2h13z"/><path d="M1016.53-219h-1.06l.03-1v-.7l-.02-.3h1.05zM1090.26-220l-14.26 4.64v-9.28z"/><path d="M1093.5-220l-18.5 6v-12zm-16.5 3.26l10.03-3.26-10.03-3.26z"/><use xlink:href="#q" transform="matrix(1,0,0,1,1046.999217584074,-230.8) translate(0 14.4)"/><path d="M769.6-127.76l-4.7 3.24-5.33 3.38-5.2 3-5.17 2.68-5.2 2.44-5.34 2.23-5.56 2.06-5.9 1.9-6.4 1.78-7.12 1.65-8.17 1.53-9.8 1.42-12.6 1.3-18.33 1.08-18.04.3-.04-2 18-.3 18.25-1.1 12.5-1.27 9.73-1.4 8.1-1.53 7.03-1.63 6.32-1.75 5.83-1.88 5.48-2.03 5.25-2.2 5.13-2.4 5.1-2.64 5.14-2.96 5.27-3.33 5.53-3.8.26-.2zm84.06-90.83l-28.1 35.55-15.48 17.93-10.98 11.67-8.72 8.52-7.38 6.64-3.4 2.8v-2.58l2.1-1.73 7.3-6.6 8.67-8.45 10.93-11.6 15.42-17.87 28.07-35.5z"/><path d="M853.5-220v.7l.03.63-1.45-1.14 1.47-1.88zM645.8-94.13l-14.35-4.4 14.2-4.87z"/><path d="M646.8-92.77l-18.6-5.7 18.4-6.32zm-12.12-5.8l10.08 3.08-.1-6.5z"/><use xlink:href="#p" transform="matrix(1,0,0,1,769.5917086859619,-143.54224322694247) translate(0 14.4)"/><path d="M305.24-127.25l6.66 3.64 6.6 3.25 6.68 2.95 6.86 2.7 7.16 2.46 7.6 2.27 8.23 2.08 9.04 1.9 10.18 1.7 11.74 1.43 13.96 1.13 7.83.3-.08 2-7.88-.3-14.05-1.14-11.84-1.45-10.26-1.7-9.12-1.9-8.3-2.1-7.7-2.3-7.23-2.5-6.94-2.73-6.74-2.98-6.68-3.3-6.73-3.67-.67-.4v-2.35zM248.82-172l14.9 13.96 10.77 9.25 8.86 7 7.83 5.67 2.38 1.58v2.4l-3.52-2.33-7.9-5.7-8.94-7.07-10.83-9.3-14.98-14.03-46.44-48 1.44-1.4z"/><path d="M202.43-219.96l-1.43 1.4v-2.13l-.03-.77zM423-100.08l-14.36 4.3.22-9.27z"/><path d="M426.25-100l-18.64 5.57.3-12.02zm-16.58 2.86l10.1-3-9.94-3.5z"/><use xlink:href="#p" transform="matrix(1,0,0,1,293.57843668752645,-140.89137369316146) translate(0 14.4)"/><defs><path d="M1087-391c0 281-226 411-532 411-177 0-315-23-414-69v-178c141 57 279 86 414 86 233 0 350-80 350-240 0-69-24-123-71-160s-142-82-285-133c-139-49-239-106-299-174s-90-156-90-264c2-252 211-371 481-371 153 0 291 26 416 78l-64 164c-129-52-249-78-360-78-195 0-293 70-293 209 0 68 22 123 66 164s134 85 270 133c164 58 273 119 328 181s83 143 83 241" id="r"/><path d="M612 20c-153 0-268-65-347-194S147-489 147-733c0-501 155-752 465-752 155 0 271 64 350 193s119 316 119 559c0 502-156 753-469 753zm0-155c98 0 165-50 216-141 86-153 87-759 0-912-51-91-118-141-216-141-97 0-162 49-212 139-85 152-84 764 0 915 50 90 115 140 212 140" id="s"/><g id="a"><use transform="matrix(0.0087890625,0,0,0.0087890625,0,0)" xlink:href="#r"/><use transform="matrix(0.0087890625,0,0,0.0087890625,10.8017578125,0)" xlink:href="#s"/></g><path d="M758 0H582c3-449-8-824 8-1274-61 68-188 168-268 234l-97-123 383-299h150V0" id="t"/><g id="b"><use transform="matrix(0.0087890625,0,0,0.0087890625,0,0)" xlink:href="#r"/><use transform="matrix(0.0087890625,0,0,0.0087890625,10.8017578125,0)" xlink:href="#t"/></g><path d="M594-1483c248 0 420 149 418 391 0 79-21 160-59 244-73 161-414 504-572 674v8h688V0H158v-156c172-193 489-508 607-698 43-69 62-147 62-231 0-146-91-244-235-244-107 0-213 46-318 137l-102-119c128-115 269-172 422-172" id="u"/><g id="c"><use transform="matrix(0.0087890625,0,0,0.0087890625,0,0)" xlink:href="#r"/><use transform="matrix(0.0087890625,0,0,0.0087890625,10.8017578125,0)" xlink:href="#u"/></g><path d="M1010-1120c0 200-132 322-316 350v6c241 31 361 147 361 348 0 294-219 436-537 436-161 0-290-26-387-79v-170c123 64 250 96 383 96 236 0 354-96 354-289 0-172-127-258-381-258H354v-151h133c195 4 334-97 336-277 1-140-106-221-250-221-119 0-233 40-344 121l-92-125c125-100 270-150 436-150 252 0 437 128 437 363" id="v"/><g id="d"><use transform="matrix(0.0087890625,0,0,0.0087890625,0,0)" xlink:href="#r"/><use transform="matrix(0.0087890625,0,0,0.0087890625,10.8017578125,0)" xlink:href="#v"/></g><path d="M389-1462L1016 0H838L211-1462h178" id="w"/><use transform="matrix(0.0087890625,0,0,0.0087890625,0,0)" xlink:href="#w" id="e"/><path d="M1126-328H913V0H737v-328H61v-159l664-983h188v976h213v166zM737-494c1-292-4-481 13-788h-9c-24 68-55 128-90 180L240-494h497" id="x"/><g id="f"><use transform="matrix(0.0087890625,0,0,0.0087890625,0,0)" xlink:href="#r"/><use transform="matrix(0.0087890625,0,0,0.0087890625,10.8017578125,0)" xlink:href="#x"/></g><path d="M614-1126c85 0 127 46 127 139s-42 139-127 139-127-46-127-139 42-139 127-139zm0 876c85 0 127 46 127 139S699 29 614 29 487-18 487-111s42-139 127-139" id="y"/><use transform="matrix(0.0087890625,0,0,0.0087890625,0,0)" xlink:href="#y" id="g"/><path d="M1055-469c0 318-203 489-527 489-149 0-268-26-356-79v-172c96 64 216 96 360 96 224 0 336-105 336-314 0-196-115-294-344-294-59 0-136 9-231 26l-90-57 55-688h690v166H416l-39 419c71-13 141-20 209-20 270-4 469 161 469 428" id="z"/><g id="h"><use transform="matrix(0.0087890625,0,0,0.0087890625,0,0)" xlink:href="#r"/><use transform="matrix(0.0087890625,0,0,0.0087890625,10.8017578125,0)" xlink:href="#z"/></g><path d="M739-1462h193c-299 251-449 548-449 893 0 347 149 645 447 893H739C443 89 295-208 295-567c0-355 148-653 444-895" id="A"/><path d="M430 0H244v-1462h841v164H430v516h617v164H430V0" id="B"/><path d="M489 324H299C596 77 745-221 745-569c0-345-149-643-448-893h192c297 241 445 539 445 895 0 360-148 657-445 891" id="C"/><g id="i"><use transform="matrix(0.0087890625,0,0,0.0087890625,0,0)" xlink:href="#r"/><use transform="matrix(0.0087890625,0,0,0.0087890625,10.8017578125,0)" xlink:href="#A"/><use transform="matrix(0.0087890625,0,0,0.0087890625,21.603515625,0)" xlink:href="#B"/><use transform="matrix(0.0087890625,0,0,0.0087890625,32.4052734375,0)" xlink:href="#C"/></g><path d="M1137-424C1137-153 941 0 662 0H135v-1462c284 7 685-30 837 88 80 62 124 152 124 282 0 179-125 297-291 316v10c221 36 332 150 332 342zm-232-655c0-182-120-224-319-224H322v461h284c195-2 299-53 299-237zM322-686v528h307c207 0 311-91 311-274 0-169-108-254-324-254H322" id="D"/><g id="j"><use transform="matrix(0.0087890625,0,0,0.0087890625,0,0)" xlink:href="#r"/><use transform="matrix(0.0087890625,0,0,0.0087890625,10.8017578125,0)" xlink:href="#A"/><use transform="matrix(0.0087890625,0,0,0.0087890625,21.603515625,0)" xlink:href="#D"/><use transform="matrix(0.0087890625,0,0,0.0087890625,32.4052734375,0)" xlink:href="#C"/></g><path d="M1094 0H907v-682H322V0H135v-1462h187v616h585v-616h187V0" id="E"/><g id="k"><use transform="matrix(0.0087890625,0,0,0.0087890625,0,0)" xlink:href="#r"/><use transform="matrix(0.0087890625,0,0,0.0087890625,10.8017578125,0)" xlink:href="#A"/><use transform="matrix(0.0087890625,0,0,0.0087890625,21.603515625,0)" xlink:href="#E"/><use transform="matrix(0.0087890625,0,0,0.0087890625,32.4052734375,0)" xlink:href="#C"/></g><use transform="matrix(0.0087890625,0,0,0.0087890625,0,0)" xlink:href="#B" id="l"/><path d="M1075-471c0 288-166 493-444 491-145 0-261-56-347-168S154-420 154-625c0-572 213-858 639-858 69 0 127 6 172 19v155c-47-16-103-24-166-24-149 0-262 47-337 141S347-949 340-745h12c63-113 166-170 307-170 262 0 416 178 416 444zM629-133c183-3 270-141 270-338 0-183-88-297-264-301-154-4-299 123-299 266 0 185 113 376 293 373" id="F"/><g id="m"><use transform="matrix(0.0087890625,0,0,0.0087890625,0,0)" xlink:href="#r"/><use transform="matrix(0.0087890625,0,0,0.0087890625,10.8017578125,0)" xlink:href="#F"/></g><path d="M33-154v-36h34v36H33zM33 0v-36h34V0H33" id="G"/><use transform="matrix(0.05,0,0,0.05,0,0)" xlink:href="#G" id="n"/><path d="M72 4L0-261h28L100 4H72" id="H"/><use transform="matrix(0.05,0,0,0.05,0,0)" xlink:href="#H" id="o"/><path d="M103-251c84 0 111 97 45 133-19 10-37 24-39 52H78c0-63 77-55 77-114 0-30-21-42-52-43-32 0-53 17-56 46l-32-2c7-45 34-72 88-72zM77 0v-35h34V0H77" id="I"/><use transform="matrix(0.05,0,0,0.05,0,0)" xlink:href="#I" id="p"/><path d="M117-194c89-4 53 116 60 194h-32v-121c0-31-8-49-39-48C34-167 62-67 57 0H25l-1-190h30c1 10-1 24 2 32 11-22 29-35 61-36" id="J"/><g id="q"><use transform="matrix(0.05,0,0,0.05,0,0)" xlink:href="#H"/><use transform="matrix(0.05,0,0,0.05,5,0)" xlink:href="#J"/></g></defs></g></svg>